# xmcd CD database file
# Copyright (C) 1997 Ti Kan
#
# Track frame offsets:
#  187
#  2435
#  33827
#  79117
#  119030
#  152042
#  172392
#  198807
#  223402
#  244605
#  280490
#
# Disc length: 4241 seconds
#
# Revision: 1
# Processed by: cddbd v1.4b41PL1 Copyright (c) Steve Scherf et al.
# Submitted via: CDWizzard Release:4.32
#
DISCID=99108f0b
DTITLE=Benny Carter - ALL THAT JAZZ - LIVE AT PRINCETON
DYEAR=1900
DGENRE=
TTITLE0=INTRODUCTION
TTITLE1=HACKENSACK
TTITLE2=I'M BEGINNING TO SEE THE LIGHT
TTITLE3=MISTY
TTITLE4=NOW'S THE TIME
TTITLE5=ALMOST LIKE BEING IN LOVE
TTITLE6=WHEN SUNNY GETS BLUE
TTITLE7=ALL THAT JAZZ
TTITLE8=WE WERE IN LOVE
TTITLE9=BLUES WALK
TTITLE10=ALL OF ME
EXTD=
EXTT0=
EXTT1=
EXTT2=
EXTT3=
EXTT4=
EXTT5=
EXTT6=
EXTT7=
EXTT8=
EXTT9=
EXTT10=
PLAYORDER=
